# xmcd
# Track frame offsets:
# 150
# 22055
# 29304
# 45961
# 60886
# 77831
# 97689
# 114308
# 132850
# 149059
# 164445
# 175044
#
# Disc length: 2569 seconds
# Revision: 0
# Processed by: cddbd v1.5.2PL0 Copyright (c) Steve Scherf et al.
# Submitted via: VisiTrax 2.11.1.266 - For more info visit www.synapsa.com
#
DISCID=8f0a070c
DTITLE=Josh Rawiri - If You Need Love
DYEAR=2009
DGENRE=Blues
TTITLE0=Beautiful Bred Girl
TTITLE1=Ballerina
TTITLE2=She"ll Love You
TTITLE3=If You Need Love
TTITLE4=On the Road
TTITLE5=Marinas Song
TTITLE6=Chocolate Smoothie
TTITLE7=Nuclear Waste
TTITLE8=Yesterday
TTITLE9=Hope I Don"t
TTITLE10=Beleive in What You Beleive In
TTITLE11=I Got Soul
EXTD=
EXTT0=
EXTT1=
EXTT2=
EXTT3=
EXTT4=
EXTT5=
EXTT6=
EXTT7=
EXTT8=
EXTT9=
EXTT10=
EXTT11=
PLAYORDER=
